<?xml version="1.0" encoding="UTF-8"?>
<svg version="1.1" xmlns="http://www.w3.org/2000/svg" width="2597" height="2160">
<path d="M0 0 C5.63333531 0.00377727 11.26665303 0.00239795 16.8999877 -0.00180173 C51.00886447 -0.02651246 85.11246228 0.06209114 119.21840906 0.54248166 C121.40102586 0.57314864 123.58365305 0.60296906 125.76628256 0.63271594 C189.12739576 1.50968141 189.12739576 1.50968141 213.48446035 4.12856936 C215.08859404 4.29555315 216.69275595 4.4622663 218.29696035 4.62856936 C221.40987067 4.95562936 224.41717634 5.50668956 227.48446035 6.12856936 C228.41411612 6.31113284 229.34377188 6.49369632 230.30159903 6.68179202 C259.71795714 12.47658991 287.9973917 20.61331862 316.32219839 30.3829639 C317.77918912 30.88537307 319.23674223 31.3861539 320.69481802 31.8854053 C329.98485168 35.0708956 339.07978905 38.47840336 348.04696035 42.50356936 C349.64882193 43.21573611 349.64882193 43.21573611 351.28304434 43.94229007 C359.19064478 47.48431697 366.96627297 51.22999383 374.66463614 55.2032764 C376.48756627 56.13014858 378.32375174 57.02241789 380.1680541 57.90591311 C398.07281403 66.53228957 415.13564657 76.8491552 431.48446035 88.12856936 C432.58531973 88.83755374 433.6861791 89.54653811 434.82039785 90.27700686 C437.48446035 92.12856936 437.48446035 92.12856936 438.48446035 94.12856936 C439.47446035 94.12856936 440.46446035 94.12856936 441.48446035 94.12856936 C441.48446035 94.78856936 441.48446035 95.44856936 441.48446035 96.12856936 C442.18571035 96.37606936 442.88696035 96.62356936 443.60946035 96.87856936 C446.87960583 98.30037175 449.62558235 100.00103225 452.48446035 102.12856936 C452.48446035 102.78856936 452.48446035 103.44856936 452.48446035 104.12856936 C453.80446035 104.45856936 455.12446035 104.78856936 456.48446035 105.12856936 C456.48446035 105.78856936 456.48446035 106.44856936 456.48446035 107.12856936 C457.06768057 107.39790286 457.65090078 107.66723636 458.25179434 107.94473147 C460.49707825 109.13525982 462.25935169 110.44351234 464.2071166 112.06997561 C464.90530508 112.64932864 465.60349356 113.22868167 466.32283926 113.82559085 C467.05679922 114.44119876 467.79075918 115.05680667 468.54696035 115.69106936 C470.07669498 116.96476307 471.60664297 118.23820057 473.1368041 119.51138186 C474.252246 120.44192386 474.252246 120.44192386 475.39022207 121.39126468 C477.18270262 122.87824201 478.9852894 124.34966561 480.8008666 125.80825686 C485.34798567 129.46365995 489.66918239 133.14801361 493.71175528 137.35659671 C495.44089678 139.08502379 497.23187121 140.66621656 499.09383535 142.24966311 C503.9582429 146.47832078 508.50187504 150.99921988 513.04696035 155.56606936 C513.8584252 156.37366702 514.66989004 157.18126468 515.50594473 158.01333499 C519.83201338 162.34638681 524.00215828 166.75440842 527.99398184 171.39736819 C529.85807765 173.56252845 531.79606992 175.65491831 533.73446035 177.75356936 C538.79682737 183.3650745 543.40868689 189.28700382 548.02889395 195.26138186 C549.54702608 197.20882811 551.08512504 199.13897351 552.6289916 201.06606936 C553.13833242 201.70447757 553.64767324 202.34288577 554.17244864 203.00063968 C555.15562925 204.23193653 556.14217268 205.46055734 557.13240957 206.68618655 C560.48446035 210.90419402 560.48446035 210.90419402 560.48446035 213.12856936 C561.14446035 213.12856936 561.80446035 213.12856936 562.48446035 213.12856936 C564.11875786 215.22306617 565.6261327 217.30639027 567.10946035 219.50356936 C567.52969473 220.10685061 567.9499291 220.71013186 568.38289785 221.33169436 C571.48446035 225.86319802 571.48446035 225.86319802 571.48446035 228.12856936 C572.14446035 228.12856936 572.80446035 228.12856936 573.48446035 228.12856936 C574.03231192 229.10825686 574.58016348 230.08794436 575.1446166 231.09731936 C577.13576912 234.5820545 579.26766815 237.95730141 581.44222403 241.32974124 C591.8807678 257.5464263 601.40058094 274.20432151 609.44539785 291.73794436 C611.02573767 295.18023906 612.70409135 298.55517899 614.44344473 301.91934085 C618.25141195 309.30060265 621.58652388 316.84404251 624.79696035 324.50356936 C625.21775869 325.50218997 625.63855703 326.50081058 626.07210684 327.52969241 C628.27648555 332.86252327 630.15026372 338.16216885 631.7359252 343.70815921 C632.48490014 346.12999143 633.37697565 348.42816429 634.3477416 350.76919436 C637.17674955 357.6747102 639.42536898 364.76760474 641.67196035 371.87856936 C641.90890615 372.62835055 642.14585196 373.37813174 642.38997793 374.15063357 C657.25908156 421.54372355 662.10446878 468.07789986 661.49886465 517.63711429 C661.4850878 518.95042727 661.47131094 520.26374026 661.4571166 521.61685061 C661.4391503 522.7361597 661.42118399 523.85546878 661.40267324 525.00869632 C661.41425871 528.44104169 661.69655312 531.82577007 661.98226309 535.24551272 C662.64331853 544.08706986 662.59740152 552.90874131 662.55962515 561.77088046 C662.54670094 564.83060786 662.54030707 567.89029125 662.53548574 570.95004153 C662.5241546 577.42623759 662.50486002 583.90239638 662.48446035 590.37856936 C662.46084365 597.92938596 662.44050713 605.48018281 662.42852163 613.03102756 C662.4220329 616.04796461 662.40953576 619.06483911 662.39681387 622.0817554 C662.39318427 623.91669544 662.38983218 625.75163605 662.3868041 627.58657718 C662.38163778 628.42701068 662.37647146 629.26744418 662.37114859 630.13334537 C662.26240385 634.26315435 662.26240385 634.26315435 663.48446035 638.12856936 C663.57949399 639.87235309 663.60968761 641.61981242 663.60980952 643.36618382 C663.6135648 645.04595201 663.6135648 645.04595201 663.61739594 646.75965491 C663.61505477 648.00275674 663.61271361 649.24585858 663.61030149 650.52663016 C663.61175494 651.84268297 663.61320838 653.15873578 663.61470586 654.51466897 C663.61862683 658.1963672 663.61625593 661.87803946 663.61292791 665.5597373 C663.61040505 669.55430369 663.6136456 673.5488659 663.61617124 677.5434317 C663.61979445 684.55400191 663.61966632 691.56456442 663.61712408 698.57513499 C663.61335394 708.99996564 663.61526891 719.42478975 663.61833239 729.84962034 C663.62360883 748.46522582 663.62313745 767.08082787 663.62025348 785.69643368 C663.61774172 801.98876101 663.61707944 818.28108708 663.61827612 834.57341456 C663.6183907 836.19206612 663.6183907 836.19206612 663.61850759 837.84341771 C663.61881891 842.22345084 663.61913731 846.60348397 663.61946735 850.9835171 C663.62252923 892.10719096 663.61974846 933.23086263 663.61437046 974.35453616 C663.60962555 1010.91520139 663.6100483 1047.47586315 663.61483145 1084.03652835 C663.62018289 1125.07861794 663.6223111 1166.12070559 663.61921918 1207.16279548 C663.61889845 1211.53595595 663.61858561 1215.90911641 663.61827612 1220.28227687 C663.61819704 1221.35912098 663.61811796 1222.43596509 663.61803649 1223.54544083 C663.6168976 1239.82810299 663.61823195 1256.11076374 663.62075567 1272.3934257 C663.6236104 1290.90440404 663.62290984 1309.4153784 663.61747493 1327.92635623 C663.61453148 1338.29438851 663.61435725 1348.66241219 663.6181211 1359.03044425 C663.62035592 1365.94779495 663.61898168 1372.86513873 663.61461633 1379.7824884 C663.61222749 1383.72923228 663.61144501 1387.67595903 663.61502232 1391.6227024 C663.61824057 1395.20973314 663.61689768 1398.7967315 663.61184166 1402.38375986 C663.61035175 1404.28873258 663.61378787 1406.19370718 663.61739594 1408.09867707 C663.61489242 1409.22603308 663.6123889 1410.3533891 663.60980952 1411.51490742 C663.60970788 1412.97117322 663.60970788 1412.97117322 663.60960419 1414.45685853 C663.48514951 1417.11385659 663.03396986 1419.53098486 662.48446035 1422.12856936 C662.40288624 1424.55336 662.37694043 1426.98025905 662.3868041 1429.4064014 C662.38826437 1430.1209801 662.38972464 1430.83555881 662.39122915 1431.57179141 C662.39502332 1433.11810001 662.40112734 1434.66440431 662.40929556 1436.21069598 C662.42212171 1438.6672872 662.4285917 1441.12382401 662.43343496 1443.58044314 C662.44677092 1449.68617434 662.47087529 1455.79185418 662.49483633 1461.8975513 C662.51468187 1467.05368528 662.53027982 1472.20979927 662.54039907 1477.36596179 C662.54681443 1479.76921834 662.55932584 1482.17239155 662.57210684 1484.57562137 C662.59569991 1491.72863957 662.46653037 1498.78597157 661.70708609 1505.90783572 C661.42710483 1508.70070153 661.40266639 1511.44852887 661.4571166 1514.25356936 C661.47089346 1515.34959476 661.48467031 1516.44562015 661.49886465 1517.57485843 C661.51473623 1518.74758304 661.53060781 1519.92030765 661.54696035 1521.12856936 C661.75585395 1556.62700371 660.27400756 1592.97973769 654.60946035 1628.06606936 C654.47233633 1628.92160403 654.33521231 1629.7771387 654.19393301 1630.65859866 C651.44678185 1646.22826349 646.63176705 1661.29592566 641.45540762 1676.20010257 C640.54456973 1678.82295341 639.6435834 1681.44902796 638.74422598 1684.07583499 C623.04186463 1729.78135237 602.94886849 1773.23861213 575.48446035 1813.12856936 C574.04391471 1815.29321228 572.60627857 1817.45979507 571.17196035 1819.62856936 C569.94473801 1821.46320479 568.71577608 1823.29667871 567.48446035 1825.12856936 C566.97785879 1825.88653811 566.47125723 1826.64450686 565.9493041 1827.42544436 C564.84779145 1829.03114794 563.67507505 1830.58777387 562.48446035 1832.12856936 C561.82446035 1832.12856936 561.16446035 1832.12856936 560.48446035 1832.12856936 C560.07610952 1833.00098269 560.07610952 1833.00098269 559.65950918 1833.89102054 C558.49634844 1836.10593186 557.21277142 1837.95274344 555.6836791 1839.92935061 C555.12551504 1840.65146731 554.56735098 1841.37358401 553.99227285 1842.11758304 C553.39156973 1842.88433352 552.7908666 1843.65108401 552.17196035 1844.44106936 C551.54676504 1845.24069095 550.92156973 1846.04031253 550.2774291 1846.86416507 C541.42803657 1858.09874543 531.99108502 1868.74469521 522.1524291 1879.11953616 C519.76364393 1881.64401605 517.46976709 1884.14699509 515.3008666 1886.86685061 C513.64002346 1888.93486821 512.02474843 1890.51320088 509.98446035 1892.19106936 C506.29638838 1895.33556356 502.88507412 1898.68167789 499.48446035 1902.12856936 C494.97926268 1906.6776692 490.3843944 1911.00277212 485.48446035 1915.12856936 C484.02072989 1916.39120608 484.02072989 1916.39120608 482.5274291 1917.67935061 C476.24306901 1923.08176166 469.86149346 1928.20230644 463.14071035 1933.05825686 C460.42037164 1935.08929846 460.42037164 1935.08929846 458.01571035 1937.60903811 C453.10482383 1942.49718906 447.17951413 1946.21186347 441.48446035 1950.12856936 C440.72568594 1950.65128421 439.96691153 1951.17399905 439.18514395 1951.71255374 C428.59022625 1958.97493902 417.79713285 1965.87437868 406.79696035 1972.50356936 C405.70343252 1973.1644556 404.60990469 1973.82534183 403.48323965 1974.50625491 C402.4691503 1975.11122806 401.45506094 1975.7162012 400.4102416 1976.33950686 C399.50701162 1976.87881839 398.60378164 1977.41812991 397.67318106 1977.97378421 C395.48446035 1979.12856936 395.48446035 1979.12856936 393.48446035 1979.12856936 C393.15446035 1979.78856936 392.82446035 1980.44856936 392.48446035 1981.12856936 C390.14835437 1982.40936878 387.81951844 1983.59852918 385.42196035 1984.75356936 C383.94395004 1985.47723014 382.46608929 1986.20119645 380.9883666 1986.92544436 C380.23313711 1987.29347171 379.47790762 1987.66149905 378.69979239 1988.04067874 C376.66970602 1989.03760015 374.65110673 1990.05333711 372.6368041 1991.08169436 C334.16772918 2010.693086 334.16772918 2010.693086 324.10750723 2012.57266116 C321.59994927 2013.10409354 319.52392639 2013.85182563 317.1758666 2014.86294436 C310.06001817 2017.77594151 302.75066237 2020.07169123 295.42196035 2022.37856936 C294.28819464 2022.73640506 294.28819464 2022.73640506 293.13152456 2023.10146976 C281.77745769 2026.66649014 270.36743486 2029.84603489 258.79696035 2032.62856936 C258.13711142 2032.78797 257.47726248 2032.94737063 256.79741812 2033.11160159 C230.86593475 2039.33051007 230.86593475 2039.33051007 222.48446035 2039.12856936 C220.81291135 2039.43648629 219.14640488 2039.77243839 217.48446035 2040.12856936 C215.15288543 2040.47398787 212.81937675 2040.80651193 210.48446035 2041.12856936 C208.84477285 2041.37606936 208.84477285 2041.37606936 207.17196035 2041.62856936 C198.28389201 2042.83373117 189.45132409 2043.35899867 180.4883666 2043.62856936 C179.19325659 2043.66917483 177.89814657 2043.7097803 176.5637908 2043.75161624 C173.78407944 2043.83805442 171.00429945 2043.92167834 168.22445059 2044.00356936 C164.2841399 2044.12008332 160.34430062 2044.24944959 156.40438223 2044.37856936 C91.92558138 2046.41820338 27.38308178 2046.29397534 -37.11967641 2046.25713873 C-45.66821178 2046.25276992 -54.21673255 2046.25592313 -62.76526701 2046.26076686 C-71.20204647 2046.26534754 -79.63881973 2046.26592681 -88.07560003 2046.26332819 C-93.03254391 2046.26180181 -97.98947797 2046.26146898 -102.94642115 2046.26486468 C-121.31617636 2046.27570394 -139.67561042 2046.22886999 -158.03848886 2045.68276858 C-158.71457138 2045.66335656 -159.3906539 2045.64394454 -160.08722377 2045.62394428 C-167.60133981 2045.4012847 -175.04860157 2045.01499988 -182.51553965 2044.12856936 C-188.70882948 2029.97651728 -186.68049835 2010.25545027 -187.04114389 1994.90327334 C-187.06178529 1994.05845815 -187.08242669 1993.21364295 -187.10369359 1992.34322729 C-187.54114522 1974.43303602 -187.83655146 1956.52251788 -188.04337168 1938.60830569 C-188.05344992 1937.75344778 -188.06352817 1936.89858987 -188.07391182 1936.01782717 C-188.81514237 1872.90346679 -188.87727529 1809.7817074 -189.04783864 1746.663814 C-189.06529389 1740.22201126 -189.08330917 1733.78021024 -189.10162735 1727.3384099 C-189.39235639 1625.05838434 -189.57198679 1522.77846077 -189.64636368 1161.0206092 C-189.64567862 1156.37235749 -189.64499443 1151.72410578 -189.64431238 1147.07585406 C-189.64414264 1145.92205918 -189.64397291 1144.7682643 -189.64379802 1143.57950594 C-189.64033769 1119.80936445 -189.63876027 1096.03922299 -189.63745459 1072.26908131 C-189.63111884 957.07176727 -189.61425559 841.8744508 -189.09358358 411.03665757 C-189.08069785 405.37899113 -189.06807567 399.72132414 -189.05555631 394.06365688 C-188.86114983 306.21318233 -188.56964367 218.36342852 -188.08900842 130.51401669 C-188.05843285 124.91271487 -188.0288325 119.31140912 -188.00015815 113.71009724 C-187.6527371 45.86987116 -187.6527371 45.86987116 -187.04508066 19.88662601 C-187.02632439 19.03788059 -187.00756811 18.18913518 -186.98824346 17.31467021 C-186.93606917 15.04039249 -186.87667142 12.76646909 -186.81340647 10.49247622 C-186.78010516 9.26930225 -186.74680386 8.04612828 -186.71249342 6.78588843 C-186.51553965 4.12856936 -186.51553965 4.12856936 -185.51553965 3.12856936 C-177.79787987 1.81152553 -169.97027801 1.8031102 -162.16104746 1.60073733 C-160.64472519 1.55903103 -159.12840467 1.51726073 -157.61208582 1.47543025 C-142.23529965 1.06140129 -126.85649432 0.80314172 -111.4755969 0.6036036 C-109.12820342 0.57311276 -106.78082182 0.54179436 -104.43343973 0.51043963 C-69.62246764 0.05071928 -34.81355321 -0.02603131 0 0 Z M177.48446035 923.12856936 C176.81882071 923.26247073 176.15318106 923.3963721 175.46737051 923.53433108 C166.39093403 925.42668895 157.56732249 928.2802705 148.73446035 931.06606936 C147.70482168 931.38986575 146.67518301 931.71366214 145.61434317 932.04727054 C135.82560484 935.20237667 126.32983726 938.83589756 117.42196035 944.01528811 C115.47678778 945.132978 113.49953305 946.14352267 111.48446035 947.12856936 C111.48446035 947.78856936 111.48446035 948.44856936 111.48446035 949.12856936 C110.53571035 949.43794436 109.58696035 949.74731936 108.60946035 950.06606936 C105.62365627 951.00251679 105.62365627 951.00251679 103.48446035 952.12856936 C103.48446035 952.78856936 103.48446035 953.44856936 103.48446035 954.12856936 C102.77289785 954.37735843 102.06133535 954.62614749 101.32821035 954.88247561 C80.58629765 963.97130824 61.96566853 986.32879706 48.98885489 1004.09585452 C47.93711299 1005.51695206 46.86318738 1006.92177808 45.77303457 1008.31362796 C45.22276602 1009.01955081 44.67249746 1009.72547366 44.1055541 1010.45278811 C43.60338369 1011.08660403 43.10121328 1011.72041995 42.58382559 1012.37344241 C41.21904246 1014.2071387 41.21904246 1014.2071387 41.48446035 1017.12856936 C40.82446035 1017.12856936 40.16446035 1017.12856936 39.48446035 1017.12856936 C37.40671905 1020.75443164 35.42794418 1024.42946214 33.48446035 1028.12856936 C33.14173086 1028.77761233 32.79900137 1029.4266553 32.44588614 1030.09536624 C16.77411821 1060.20891219 11.03677776 1092.91287345 11.10946035 1126.56606936 C11.10967184 1127.47733584 11.10988333 1128.38860232 11.11010122 1129.32748294 C11.1570418 1149.70058253 12.63682194 1169.90758565 19.77059317 1189.17690921 C20.55518802 1191.32193357 21.28195064 1193.48255543 22.00789785 1195.64810061 C26.61467 1209.08785162 32.86703682 1221.50413421 40.16414785 1233.67935061 C40.56101797 1234.34233157 40.95788809 1235.00531253 41.36678457 1235.68838382 C41.73561758 1236.16364505 42.10445059 1236.63890628 42.48446035 1237.12856936 C43.14446035 1237.12856936 43.80446035 1237.12856936 44.48446035 1237.12856936 C44.48446035 1238.11856936 44.48446035 1239.10856936 44.48446035 1240.12856936 C45.14446035 1240.12856936 45.80446035 1240.12856936 46.48446035 1240.12856936 C46.76547598 1240.71895999 47.0464916 1241.30935061 47.33602285 1241.91763186 C54.93549564 1256.54790941 69.10256582 1269.55498397 81.48446035 1280.12856936 C82.06840567 1280.64032718 82.65235098 1281.15208499 83.2539916 1281.67935061 C85.9765107 1284.30936117 85.9765107 1284.30936117 89.48446035 1285.12856936 C89.48446035 1285.78856936 89.48446035 1286.44856936 89.48446035 1287.12856936 C90.47446035 1287.12856936 91.46446035 1287.12856936 92.48446035 1287.12856936 C92.48446035 1287.78856936 92.48446035 1288.44856936 92.48446035 1289.12856936 C93.14446035 1289.12856936 93.80446035 1289.12856936 94.48446035 1289.12856936 C94.81446035 1289.78856936 95.14446035 1290.44856936 95.48446035 1291.12856936 C97.5090929 1291.78070228 97.5090929 1291.78070228 99.48446035 1292.12856936 C99.48446035 1292.78856936 99.48446035 1293.44856936 99.48446035 1294.12856936 C100.47446035 1294.12856936 101.46446035 1294.12856936 102.48446035 1294.12856936 C102.48446035 1294.78856936 102.48446035 1295.44856936 102.48446035 1296.12856936 C103.47446035 1296.12856936 104.46446035 1296.12856936 105.48446035 1296.12856936 C105.48446035 1296.78856936 105.48446035 1297.44856936 105.48446035 1298.12856936 C119.68584577 1306.21935039 119.68584577 1306.21935039 134.48446035 1313.12856936 C135.39067129 1313.5191553 136.29688223 1313.90974124 137.2305541 1314.31216311 C141.32982792 1316.03159727 143.96623449 1317.12856936 148.48446035 1317.12856936 C148.81446035 1317.78856936 149.14446035 1318.44856936 149.48446035 1319.12856936 C188.96160882 1334.89011904 234.48280024 1332.35037315 274.67196035 1321.50356936 C275.44491446 1321.29756106 276.21786856 1321.09155276 277.01424551 1320.87930179 C278.85704609 1320.36021192 280.67443927 1319.75242188 282.48446035 1319.12856936 C282.81446035 1318.46856936 283.14446035 1317.80856936 283.48446035 1317.12856936 C284.47446035 1317.45856936 285.46446035 1317.78856936 286.48446035 1318.12856936 C288.47509739 1317.32096057 288.47509739 1317.32096057 290.48446035 1316.12856936 C291.85508652 1315.51875334 293.22896406 1314.91620671 294.6055541 1314.31997561 C312.65821033 1306.32812555 329.24213586 1296.34950846 344.46883535 1283.78481936 C346.48446035 1282.12856936 346.48446035 1282.12856936 348.75008535 1280.53481936 C349.3224291 1280.07075686 349.89477285 1279.60669436 350.48446035 1279.12856936 C350.48446035 1278.46856936 350.48446035 1277.80856936 350.48446035 1277.12856936 C351.14446035 1277.12856936 351.80446035 1277.12856936 352.48446035 1277.12856936 C352.48446035 1276.46856936 352.48446035 1275.80856936 352.48446035 1275.12856936 C353.47446035 1274.79856936 354.46446035 1274.46856936 355.48446035 1274.12856936 C355.48446035 1273.46856936 355.48446035 1272.80856936 355.48446035 1272.12856936 C356.47446035 1271.79856936 357.46446035 1271.46856936 358.48446035 1271.12856936 C358.48446035 1270.46856936 358.48446035 1269.80856936 358.48446035 1269.12856936 C359.06324942 1268.88106936 359.64203848 1268.63356936 360.2383666 1268.37856936 C374.68279139 1260.33993296 385.61394297 1238.20565457 393.48446035 1224.12856936 C393.86054434 1223.46002933 394.23662832 1222.79148929 394.62410879 1222.10269046 C421.73760176 1173.52340192 424.85517827 1116.08150289 410.27401114 1062.86685061 C405.59031824 1046.62309689 397.70606005 1031.82779306 389.48446035 1017.12856936 C388.82446035 1017.12856936 388.16446035 1017.12856936 387.48446035 1017.12856936 C387.15446035 1015.47856936 386.82446035 1013.82856936 386.48446035 1012.12856936 C385.82446035 1012.12856936 385.16446035 1012.12856936 384.48446035 1012.12856936 C384.24727285 1011.44407718 384.01008535 1010.75958499 383.76571035 1010.05435061 C382.21937142 1006.52322908 380.18065969 1003.46301953 377.98446035 1000.31606936 C377.58098379 999.7185889 377.17750723 999.12110843 376.7618041 998.50552249 C375.72406253 997.00713326 374.60970239 995.56241323 373.48446035 994.12856936 C372.82446035 994.12856936 372.16446035 994.12856936 371.48446035 994.12856936 C370.82446035 992.80856936 370.16446035 991.48856936 369.48446035 990.12856936 C368.82446035 990.12856936 368.16446035 990.12856936 367.48446035 990.12856936 C367.15446035 988.80856936 366.82446035 987.48856936 366.48446035 986.12856936 C365.82446035 986.12856936 365.16446035 986.12856936 364.48446035 986.12856936 C364.48446035 985.46856936 364.48446035 984.80856936 364.48446035 984.12856936 C363.82446035 984.12856936 363.16446035 984.12856936 362.48446035 984.12856936 C362.48446035 983.46856936 362.48446035 982.80856936 362.48446035 982.12856936 C361.82446035 982.12856936 361.16446035 982.12856936 360.48446035 982.12856936 C360.48446035 981.46856936 360.48446035 980.80856936 360.48446035 980.12856936 C359.82446035 980.12856936 359.16446035 980.12856936 358.48446035 980.12856936 C358.48446035 979.46856936 358.48446035 978.80856936 358.48446035 978.12856936 C357.82446035 978.12856936 357.16446035 978.12856936 356.48446035 978.12856936 C356.48446035 977.46856936 356.48446035 976.80856936 356.48446035 976.12856936 C353.42887612 973.10339027 353.42887612 973.10339027 349.48446035 972.12856936 C349.48446035 971.46856936 349.48446035 970.80856936 349.48446035 970.12856936 C348.82446035 970.12856936 348.16446035 970.12856936 347.48446035 970.12856936 C347.15446035 969.13856936 346.82446035 968.14856936 346.48446035 967.12856936 C342.69251511 963.62142688 338.44892838 960.55433354 333.92196035 958.06606936 C331.28313968 956.57873407 329.13625863 955.14996981 326.77352285 953.30825686 C313.92004886 943.58683287 299.08608256 937.54796705 284.04793692 932.06558108 C281.88957351 931.27664787 279.74483705 930.46133649 277.60164785 929.63247561 C257.90741995 922.43219411 236.58451738 919.89853646 215.73446035 919.87856936 C214.63897375 919.87705874 214.63897375 919.87705874 213.52135611 919.87551761 C201.29875844 919.88688171 189.48508258 920.65524086 177.48446035 923.12856936 Z " fill="#000000" transform="translate(1645.5155396461487,56.87143063545227)"/>
<path d="M0 0 C7.03569717 0.00231869 14.07139193 0.00255545 21.10708938 0.00148416 C22.12494246 0.00133093 23.14279554 0.0011777 24.19149265 0.00101982 C26.26144231 0.00069998 28.33139197 0.00037577 30.40134162 0.00004723 C49.56475138 -0.00276832 68.72815625 0.00042009 87.89156521 0.0058476 C104.2721636 0.01034294 120.65275492 0.0095098 137.03335319 0.00492883 C156.21846166 -0.00043417 175.40356595 -0.00252584 194.58867506 0.0005411 C196.63541172 0.00085956 198.68214838 0.00117393 200.72888504 0.00148416 C201.73514561 0.00163844 202.74140619 0.00179271 203.77815951 0.00195166 C210.8142374 0.00280935 217.8503126 0.00137084 224.88639007 -0.00099539 C233.44447181 -0.00381151 242.00254439 -0.00301578 250.56062509 0.00228535 C254.91180723 0.00489325 259.26297413 0.00597702 263.61415611 0.0026362 C280.4037111 -0.00919882 297.14563136 0.0313838 313.90713249 1.13529993 C316.21949675 1.26278623 318.53197009 1.38834149 320.84463249 1.51029993 C325.96667669 1.79695336 329.27707602 3.50524346 332.90713249 7.13529993 C333.96311684 10.24761791 334.09079448 13.27102709 334.20498107 16.54000843 C334.26380397 18.18903007 334.26380397 18.18903007 334.32381522 19.87136528 C334.36104775 21.0758927 334.39828029 22.28042013 334.43664108 23.52144838 C334.47808102 24.7993374 334.51952097 26.07722642 334.56221667 27.39383934 C335.05959245 43.38030943 335.23072658 59.3729306 335.40627124 75.36552448 C335.43560575 78.0120215 335.46608878 80.65850304 335.49691641 83.30498307 C335.91239638 119.00499196 336.2389472 154.70526534 336.44632331 190.40708733 C336.45644573 192.14866389 336.46663956 193.89024005 336.47690003 195.6318158 C337.00917653 285.99164502 337.0184054 376.35251528 337.04268409 613.37303408 C337.04021747 644.17725944 337.03980444 674.9814842 337.04094825 705.78570963 C337.04102573 707.94463811 337.04110289 710.10356659 337.04117972 712.26249506 C337.04149035 720.94430156 337.04180903 729.62610805 337.04213949 738.30791455 C337.04305487 762.54759021 337.04362664 786.78726587 337.04392562 811.02694155 C337.04393927 812.1291408 337.04395292 813.23134005 337.04396698 814.36693928 C337.04437407 849.29824258 337.04326046 884.22954564 337.04107605 919.16084886 C337.04097067 920.85156435 337.04097067 920.85156435 337.04086317 922.57643571 C337.03971911 940.86442807 337.03849924 959.15242042 337.037273 977.44041277 C337.03240587 1050.10628723 337.03265654 1122.77215985 337.03750358 1195.4380343 C337.03872525 1213.81113903 337.03993649 1232.18424376 337.04107605 1250.5573485 C337.04118172 1252.25541025 337.04118172 1252.25541025 337.04128952 1253.98777628 C337.04345096 1288.9630252 337.04435905 1323.93827398 337.04392562 1358.91352297 C337.04390525 1360.56393048 337.04390525 1360.56393048 337.04388446 1362.24767955 C337.04357179 1386.41542611 337.04293775 1410.58317266 337.04201512 1434.75091921 C337.04168613 1443.39894573 337.04137303 1452.04697225 337.04106441 1460.69499877 C337.04098702 1462.84531459 337.04090829 1464.99563041 337.04082821 1467.14594623 C337.03956662 1501.11320129 337.04096421 1535.08045555 337.04367836 1569.04771051 C337.0464583 1604.22165951 337.04537802 1639.39560666 337.04014706 1674.56955539 C337.03959493 1678.37573703 337.0390582 1682.18191866 337.03853355 1685.9881003 C337.03840334 1686.92192056 337.03827314 1687.85574083 337.03813898 1688.81785868 C337.03643231 1701.6050636 337.03690053 1714.39226662 337.03930008 1727.1794714 C337.06369207 1857.3579316 337.06369207 1857.3579316 336.46154533 1916.99922205 C336.45173235 1917.9924871 336.44191937 1918.98575215 336.43180903 1920.00911615 C336.22413443 1940.92801093 335.90879848 1961.84261227 335.42716919 1982.75708605 C335.40792959 1983.61695444 335.38868999 1984.47682283 335.36886738 1985.36274784 C334.31338231 2031.83436132 334.31338231 2031.83436132 329.90713249 2039.13529993 C325.79191318 2042.3004283 321.65944149 2042.83157507 316.62856803 2043.28422571 C315.83347926 2043.36331737 315.03839048 2043.44240904 314.2192081 2043.52389742 C306.2775028 2044.2726685 298.33696096 2044.58627509 290.36416374 2044.75248743 C289.20499411 2044.78014499 289.20499411 2044.78014499 288.02240692 2044.8083613 C266.71420502 2045.31510409 245.40042579 2045.28936325 224.08752571 2045.26407266 C220.52726202 2045.26022716 216.96700112 2045.2582069 213.40673576 2045.2566073 C128.34304261 2045.21206275 43.27737092 2044.53072501 -145.97445931 2042.43998743 C-147.28977639 2042.41948831 -148.60509346 2042.3989892 -149.96026864 2042.3778689 C-152.35873892 2042.34010733 -154.75719812 2042.30163082 -157.15564217 2042.26223779 C-161.83684537 2042.18762014 -166.51550435 2042.12653424 -171.1973597 2042.13749719 C-174.21747429 2042.1357937 -177.04421134 2042.01316152 -180.03036751 2041.63529993 C-184.30464772 2041.1559414 -188.47139334 2041.0841535 -192.76864876 2041.19779993 C-195.31298078 2041.12938092 -197.6013343 2040.64424116 -200.09286751 2040.13529993 C-201.98704215 2039.9872747 -203.88327475 2039.86445404 -205.78036751 2039.76029993 C-220.27617628 2038.69625042 -234.35487297 2035.6007487 -248.34286751 2031.76029993 C-249.11570076 2031.55097833 -249.88853402 2031.34165674 -250.68478646 2031.12599207 C-268.20494326 2026.3611881 -285.32560043 2020.4870993 -302.43075814 2014.42094446 C-305.25144649 2013.4306948 -308.07455186 2012.48054466 -310.92099251 2011.56889368 C-320.99295161 2008.2418747 -330.61104525 2003.59358965 -340.21786751 1999.13529993 C-341.32001595 1998.6274093 -342.42216439 1998.11951868 -343.55771126 1997.59623743 C-350.12954537 1994.55588713 -356.63479532 1991.40976462 -363.09286751 1988.13529993 C-364.63410222 1987.36360328 -366.17571858 1986.59266798 -367.71786751 1985.82279993 C-374.84286751 1982.26029993 -381.96786751 1978.69779993 -389.09286751 1975.13529993 C-389.09286751 1974.47529993 -389.09286751 1973.81529993 -389.09286751 1973.13529993 C-390.26075814 1972.83752649 -390.26075814 1972.83752649 -391.45224251 1972.53373743 C-396.51971259 1970.58721995 -400.80499315 1967.71285113 -405.34286751 1964.76029993 C-406.31216195 1964.13542688 -407.28145638 1963.51055383 -408.28012337 1962.86674524 C-411.22307895 1960.96439407 -414.15876216 1959.05126621 -417.09286751 1957.13529993 C-417.9418763 1956.58390344 -418.79088509 1956.03250696 -419.66562142 1955.46440149 C-433.05262716 1946.75621785 -445.65206943 1937.50357694 -457.60165657 1926.89311243 C-460.42623581 1924.06741816 -460.42623581 1924.06741816 -464.09286751 1923.13529993 C-464.56724251 1922.49592493 -465.04161751 1921.85654993 -465.53036751 1921.19779993 C-467.00200401 1918.8515703 -467.00200401 1918.8515703 -470.09286751 1918.13529993 C-471.42620085 1916.46863326 -472.75953418 1914.8019666 -474.09286751 1913.13529993 C-475.08286751 1912.80529993 -476.07286751 1912.47529993 -477.09286751 1912.13529993 C-478.56552376 1910.60404993 -478.56552376 1910.60404993 -480.15536751 1908.63529993 C-482.7596044 1905.56736869 -485.43830457 1902.84544182 -488.46786751 1900.19779993 C-493.41900267 1895.83228291 -498.10946561 1891.23613721 -502.78036751 1886.57279993 C-503.49305794 1885.86454065 -504.20574837 1885.15628137 -504.94003548 1884.42655969 C-508.9484497 1880.40743775 -512.77787435 1876.2897931 -516.48324837 1871.99003626 C-517.94776716 1870.30249656 -519.44135488 1868.65316732 -520.96396126 1867.01811243 C-521.81087532 1866.1080343 -522.65778939 1865.19795618 -523.53036751 1864.26029993 C-524.82780892 1862.87197962 -524.82780892 1862.87197962 -526.15146126 1861.45561243 C-528.09286751 1859.13529993 -528.09286751 1859.13529993 -528.09286751 1857.13529993 C-528.75286751 1857.13529993 -529.41286751 1857.13529993 -530.09286751 1857.13529993 C-530.09286751 1856.47529993 -530.09286751 1855.81529993 -530.09286751 1855.13529993 C-530.75286751 1855.13529993 -531.41286751 1855.13529993 -532.09286751 1855.13529993 C-532.09286751 1854.14529993 -532.09286751 1853.15529993 -532.09286751 1852.13529993 C-533.08286751 1851.80529993 -534.07286751 1851.47529993 -535.09286751 1851.13529993 C-535.09286751 1850.47529993 -535.09286751 1849.81529993 -535.09286751 1849.13529993 C-535.75286751 1848.80529993 -536.41286751 1848.47529993 -537.09286751 1848.13529993 C-538.11124169 1846.89566339 -539.08519019 1845.61911183 -540.03036751 1844.32279993 C-540.53439095 1843.63572962 -541.03841439 1842.9486593 -541.55771126 1842.24076868 C-542.31761361 1841.19856165 -542.31761361 1841.19856165 -543.09286751 1840.13529993 C-543.93011361 1839.07762415 -543.93011361 1839.07762415 -544.78427376 1837.99858118 C-546.09286751 1836.13529993 -546.09286751 1836.13529993 -546.09286751 1834.13529993 C-547.08286751 1833.80529993 -548.07286751 1833.47529993 -549.09286751 1833.13529993 C-550.46469368 1831.59843469 -550.46469368 1831.59843469 -551.88583626 1829.57670618 C-552.42522835 1828.81221155 -552.96462044 1828.04771692 -553.52035775 1827.26005579 C-554.10116097 1826.41451135 -554.68196419 1825.56896692 -555.28036751 1824.69779993 C-556.20087899 1823.36664148 -556.20087899 1823.36664148 -557.13998665 1822.00859094 C-568.1332628 1805.92529632 -578.07908492 1789.18847995 -587.59286751 1772.19779993 C-587.92454934 1771.60909113 -588.25623116 1771.02038233 -588.59796395 1770.41383386 C-589.53070124 1768.75348384 -590.45267323 1767.08709995 -591.37411751 1765.42045618 C-591.90069954 1764.47049768 -592.42728157 1763.52053919 -592.96982064 1762.54179407 C-594.09286751 1760.13529993 -594.09286751 1760.13529993 -594.09286751 1757.13529993 C-594.75286751 1756.80529993 -595.41286751 1756.47529993 -596.09286751 1756.13529993 C-597.48665909 1753.48862756 -598.77800373 1750.84870932 -600.03036751 1748.13529993 C-600.42151741 1747.29587854 -600.81266732 1746.45645716 -601.21567025 1745.59159876 C-602.5189397 1742.77769246 -603.80776619 1739.95754765 -605.09286751 1737.13529993 C-605.54436165 1736.14707239 -605.99585579 1735.15884485 -606.46103157 1734.14067102 C-639.50929956 1661.46002826 -650.37835555 1590.04836154 -651.65536751 1510.82279993 C-651.67687874 1509.54020288 -651.69838997 1508.25760584 -651.72055306 1506.93614221 C-652.04517919 1487.16277677 -652.12754271 1467.39163164 -652.12021126 1447.61576868 C-652.11981913 1446.46219307 -652.119427 1445.30861746 -652.11902298 1444.12008501 C-652.1136936 1432.47408189 -652.09833482 1420.82814136 -652.06509747 1409.18218351 C-652.05319746 1404.76477867 -652.04511959 1400.34737073 -652.03749527 1395.92995668 C-652.03063783 1392.90305468 -652.01798799 1389.87621613 -652.0050837 1386.84933496 C-652.00148517 1384.95426004 -651.99817955 1383.05918454 -651.99521126 1381.16410852 C-651.99004777 1380.37113713 -651.98488429 1379.57816574 -651.97956433 1378.76116491 C-651.97908693 1373.47016074 -652.17965235 1368.20487183 -652.45114972 1362.92222751 C-653.16957736 1348.78292995 -653.23437076 1334.67225052 -653.22226204 1320.51713587 C-653.22362039 1317.81766163 -653.22536721 1315.1181901 -653.2275721 1312.41871668 C-653.23197284 1305.90921556 -653.23107989 1299.39972609 -653.22815946 1292.89022455 C-653.22588664 1287.60281799 -653.22560097 1282.31541466 -653.22668328 1277.02800775 C-653.22683651 1276.271117 -653.22698974 1275.51422624 -653.22714762 1274.7343994 C-653.22746738 1273.19630661 -653.22779159 1271.65821383 -653.22812021 1270.12012104 C-653.23095725 1255.77215783 -653.22771399 1241.42420106 -653.22231985 1227.07623891 C-653.21783517 1214.76519356 -653.21864479 1202.45415762 -653.22323861 1190.14311243 C-653.22858451 1175.80999313 -653.2307018 1161.47687941 -653.22762634 1147.14375926 C-653.22730781 1145.61793177 -653.22699344 1144.09210428 -653.22668328 1142.5662768 C-653.226529 1141.81568174 -653.22637473 1141.06508668 -653.22621578 1140.29174631 C-653.22535202 1135.00049856 -653.22681007 1129.70925435 -653.22916283 1124.41800714 C-653.23196037 1117.98616341 -653.23122277 1111.55433188 -653.22588209 1105.12248955 C-653.22324727 1101.84114905 -653.2227715 1098.55983326 -653.22553124 1095.27849222 C-653.22824271 1091.72893005 -653.2248619 1088.1794262 -653.21985115 1084.6298678 C-653.22208188 1083.58458028 -653.2243126 1082.53929277 -653.22661092 1081.46232987 C-653.22400317 1080.51746476 -653.22139542 1079.57259965 -653.21870865 1078.59910227 C-653.2185463 1077.77944034 -653.21838395 1076.95977842 -653.21821668 1076.11527825 C-653.09286751 1074.13529993 -653.09286751 1074.13529993 -652.09286751 1072.13529993 C-652.75286751 1072.13529993 -653.41286751 1072.13529993 -654.09286751 1072.13529993 C-654.11574018 1012.59997577 -654.13337097 953.06465169 -654.14393284 893.52932408 C-654.1451802 886.50581146 -654.14647675 879.48229886 -654.14779915 872.45878626 C-654.14792991 871.75985367 -654.14806067 871.06092109 -654.14819539 870.34080873 C-654.15245851 847.67690948 -654.15997114 825.01301272 -654.16916473 802.34911498 C-654.17886052 778.40379855 -654.18486245 754.45848376 -654.18695601 730.51316542 C-654.18833034 716.16417915 -654.19267612 701.81520002 -654.20078398 687.46621594 C-654.20605671 677.63592467 -654.2076706 667.80563711 -654.20636889 657.97534452 C-654.20572634 652.29789815 -654.20673372 646.62046428 -654.21207299 640.94302011 C-654.21692134 635.74984833 -654.21719663 630.55669755 -654.21376641 625.36352482 C-654.21334214 623.48054076 -654.21462577 621.59755542 -654.21775069 619.7145739 C-654.22174067 617.16284614 -654.21961454 614.61119501 -654.21591534 612.05946852 C-654.21854235 611.32176992 -654.22116937 610.58407132 -654.22387599 609.82401822 C-654.21169299 606.12635861 -653.92934805 602.73583657 -653.09286751 599.13529993 C-653.01584252 597.56238538 -652.9848208 595.98667634 -652.99521126 594.41191126 C-653.0001661 593.0494301 -653.0001661 593.0494301 -653.00522103 591.65942407 C-653.01351937 590.68853342 -653.02181771 589.71764276 -653.03036751 588.71733118 C-653.03604744 587.19869722 -653.03604744 587.19869722 -653.04184212 585.64938379 C-653.05812548 581.33140569 -653.08614724 577.01352346 -653.11337532 572.69560266 C-653.13158938 569.53618339 -653.14360624 566.37678006 -653.15536751 563.21733118 C-653.16781502 561.77617693 -653.16781502 561.77617693 -653.180514 560.30590845 C-653.19970856 554.93619936 -652.94361557 549.70201542 -652.31209053 544.36807276 C-651.93625855 540.5402474 -652.08098116 536.7258255 -652.15536751 532.88529993 C-652.62533538 475.54416682 -644.73271882 418.98269287 -627.90536751 364.19779993 C-627.65955941 363.39403925 -627.4137513 362.59027857 -627.16049447 361.7621615 C-623.95080949 351.33028265 -620.32268302 341.19892452 -616.09286751 331.13529993 C-615.83627358 330.52334772 -615.57967965 329.91139551 -615.31531014 329.28089929 C-613.4777134 324.90755769 -611.60635974 320.54937875 -609.71786751 316.19779993 C-609.43462624 315.54443659 -609.15138497 314.89107324 -608.85956063 314.21791101 C-604.86450979 305.02008153 -600.76717474 295.90860773 -596.08944954 287.03422571 C-594.97911539 284.91855226 -593.89335669 282.79108604 -592.80771126 280.66264368 C-579.59963551 254.94696063 -564.39148971 227.62110906 -544.82724251 206.14701868 C-540.89241536 201.58297367 -536.79580572 196.54117635 -534.09286751 191.13529993 C-533.43286751 191.13529993 -532.77286751 191.13529993 -532.09286751 191.13529993 C-532.09286751 190.47529993 -532.09286751 189.81529993 -532.09286751 189.13529993 C-531.43286751 189.13529993 -530.77286751 189.13529993 -530.09286751 189.13529993 C-529.75835579 188.32319055 -529.75835579 188.32319055 -529.41708626 187.49467493 C-527.67227788 184.38593079 -525.34063696 181.95567905 -522.90536751 179.38529993 C-521.97333643 178.39148399 -521.04236545 177.3966729 -520.11239876 176.40092493 C-519.65218834 175.90851312 -519.19197792 175.41610132 -518.71782174 174.90876795 C-517.05542707 173.09443759 -515.44758499 171.24140242 -513.84164681 169.37699915 C-510.39908408 165.43532587 -506.79865715 161.69573558 -503.09286751 158.00248743 C-502.45349251 157.3621557 -501.81411751 156.72182398 -501.15536751 156.06208826 C-499.81544887 154.72149492 -498.47428993 153.38214018 -497.13193001 152.04399133 C-495.0943154 150.011744 -493.06210997 147.97419735 -491.03036751 145.93608118 C-489.71818807 144.62456247 -488.40569849 143.31335396 -487.09286751 142.00248743 C-486.49474251 141.4023382 -485.89661751 140.80218897 -485.28036751 140.1838534 C-481.81526827 136.73766766 -478.25461341 133.50218992 -474.47568001 130.40168787 C-472.95778847 129.16312058 -472.95778847 129.16312058 -472.09286751 127.13529993 C-471.0757972 126.53588587 -471.0757972 126.53588587 -470.03818001 125.92436243 C-466.02723672 123.48800695 -462.56209455 120.5168519 -458.96786751 117.51029993 C-458.20869027 116.88147913 -457.44951302 116.25265833 -456.6673304 115.60478235 C-453.46440643 112.9512812 -450.27194287 110.28682523 -447.09677376 107.60014368 C-439.47183048 101.20540433 -431.36827843 95.64263542 -423.09286751 90.13529993 C-422.32797005 89.62450891 -421.56307259 89.1137179 -420.77499642 88.58744837 C-404.09176338 77.48353726 -387.09954926 66.79748118 -369.03427376 58.07670618 C-366.27128599 56.73709672 -363.56393169 55.32406617 -360.87021126 53.85014368 C-351.28051268 48.61386382 -341.50863569 43.99328408 -331.46786751 39.69779993 C-330.28225228 39.18958704 -329.09663704 38.68137415 -327.87509407 38.15776087 C-322.52362037 35.89676702 -317.19597437 33.74160286 -311.66025032 31.97880579 C-308.93918915 31.08480937 -306.24691934 30.1205058 -303.55375924 29.14610315 C-285.09809873 22.47707457 -266.58470884 16.66593707 -247.53036751 11.94779993 C-246.13484154 11.6001156 -246.13484154 11.6001156 -244.71112313 11.24540735 C-232.00691947 8.10012701 -219.46283098 5.54444988 -206.40927376 4.35014368 C-204.19454364 4.14473026 -201.989198 3.89586977 -199.78036751 3.63529993 C-134.16170756 -3.6363251 -65.97411798 -0.02234558 0 0 Z M109.48672233 165.21122766 C107.37914805 165.21950372 105.27157358 165.22773157 103.16399894 165.23591638 C96.39868465 165.2624824 89.63337706 165.29055473 82.86806999 165.31889368 C81.11877024 165.32618679 81.11877024 165.32618679 79.3341311 165.33362723 C68.26736316 165.37979755 57.20059762 165.4265039 46.13383804 165.47463918 C32.17665497 165.53531876 18.21946666 165.59322459 4.26225637 165.64729185 C-5.66679871 165.68598997 -15.59583704 165.72794581 -25.52486898 165.77217848 C-31.40316724 165.79828415 -37.28146318 165.82311181 -43.15978112 165.84437395 C-78.88461884 165.97519364 -114.59809056 166.30584832 -150.28036751 168.19779993 C-152.95594512 168.33509003 -155.63159054 168.47091185 -158.30729927 168.60562158 C-159.92123138 168.68730138 -161.53508182 168.77062097 -163.14882149 168.85601831 C-166.09333814 169.00839528 -169.02410828 169.13535239 -171.97299447 169.13310266 C-174.11821954 169.06639505 -174.11821954 169.06639505 -176.28036751 169.57279993 C-179.61022674 170.23877177 -182.92051548 170.54532976 -186.29989876 170.85404993 C-204.08441376 172.64493815 -221.04447775 176.80023052 -237.90536751 182.63529993 C-238.58196419 182.86827783 -239.25856087 183.10125574 -239.95566048 183.34129358 C-247.3986723 185.92024379 -254.68716983 188.70227518 -261.81161751 192.0762179 C-266.31571362 194.16726765 -271.00227242 195.75755852 -275.69052376 197.38139368 C-280.82495473 199.31574694 -285.5502594 201.91948981 -290.34286751 204.57279993 C-291.30015755 205.09994592 -292.25744759 205.62709192 -293.24374642 206.17021204 C-320.54186585 221.14470063 -320.54186585 221.14470063 -345.01083626 240.22514368 C-349.90042235 244.71108664 -355.11278895 248.94942649 -360.71786751 252.51029993 C-361.50161751 253.04654993 -362.28536751 253.58279993 -363.09286751 254.13529993 C-363.09286751 254.79529993 -363.09286751 255.45529993 -363.09286751 256.13529993 C-363.75286751 256.13529993 -364.41286751 256.13529993 -365.09286751 256.13529993 C-365.09286751 256.79529993 -365.09286751 257.45529993 -365.09286751 258.13529993 C-365.6545765 258.37248743 -366.21628548 258.60967493 -366.79501595 258.85404993 C-369.61869409 260.4284935 -371.56901594 262.35214538 -373.85849251 264.63529993 C-374.74794564 265.52217493 -375.63739876 266.40904993 -376.55380501 267.32279993 C-377.93439095 268.71498743 -377.93439095 268.71498743 -379.34286751 270.13529993 C-380.27872689 271.06342493 -381.21458626 271.99154993 -382.17880501 272.94779993 C-383.06310189 273.83467493 -383.94739876 274.72154993 -384.85849251 275.63529993 C-385.67092415 276.44998743 -386.48335579 277.26467493 -387.32040657 278.10404993 C-389.3120269 279.93714986 -389.3120269 279.93714986 -389.09286751 282.13529993 C-389.75286751 282.13529993 -390.41286751 282.13529993 -391.09286751 282.13529993 C-391.09286751 282.79529993 -391.09286751 283.45529993 -391.09286751 284.13529993 C-391.75286751 284.13529993 -392.41286751 284.13529993 -393.09286751 284.13529993 C-393.09286751 284.79529993 -393.09286751 285.45529993 -393.09286751 286.13529993 C-393.75286751 286.13529993 -394.41286751 286.13529993 -395.09286751 286.13529993 C-395.09286751 286.79529993 -395.09286751 287.45529993 -395.09286751 288.13529993 C-395.75286751 288.13529993 -396.41286751 288.13529993 -397.09286751 288.13529993 C-399.49107056 290.7721474 -399.49107056 290.7721474 -400.09286751 294.13529993 C-400.75286751 294.13529993 -401.41286751 294.13529993 -402.09286751 294.13529993 C-403.51103243 295.95234063 -403.51103243 295.95234063 -404.90536751 298.26029993 C-406.78651842 301.1952651 -408.67800471 303.9436982 -410.96786751 306.57279993 C-413.30564614 308.83705783 -413.30564614 308.83705783 -413.09286751 311.13529993 C-414.08286751 311.46529993 -415.07286751 311.79529993 -416.09286751 312.13529993 C-417.61003716 313.84810844 -417.61003716 313.84810844 -419.01864876 316.00248743 C-419.83788826 317.19853601 -419.83788826 317.19853601 -420.67367806 318.41874719 C-421.24513558 319.2739596 -421.8165931 320.129172 -422.40536751 321.01029993 C-423.28865731 322.31922205 -423.28865731 322.31922205 -424.18979134 323.65458704 C-427.57889871 328.72528017 -430.78937699 333.80928397 -433.58896126 339.23295618 C-435.1815371 342.30642072 -436.86028916 345.32088245 -438.55526986 348.33866907 C-440.30976749 351.46808872 -442.0422592 354.60946557 -443.77401986 357.75151087 C-444.63616985 359.30982862 -445.50347705 360.86530715 -446.37655892 362.41752649 C-459.00431058 384.90903639 -466.62618377 409.54661983 -474.09286751 434.13529993 C-474.38741829 435.08968958 -474.68196907 436.04407923 -474.98544564 437.02738977 C-478.22499685 447.78732773 -479.52583924 458.38226668 -480.15146126 469.58451868 C-480.19241858 470.28578441 -480.2333759 470.98705015 -480.27557435 471.70956636 C-481.37079145 490.65398101 -481.73349432 509.62065941 -482.09761681 528.59050012 C-482.15665729 531.63940535 -482.21793752 534.68825835 -482.27984871 537.73710657 C-482.96087986 571.33580804 -483.52949006 604.93551725 -483.85727181 638.5395968 C-483.86632841 639.46465812 -483.87538501 640.38971943 -483.88471605 641.3428129 C-483.94492937 647.51523881 -484.00380911 653.6876767 -484.06197562 659.86012221 C-484.08260179 662.04692169 -484.10332384 664.23372026 -484.12414088 666.42051793 C-485.03885591 762.57044723 -485.23978304 858.71691064 -485.22232876 989.10693889 C-485.21786207 1006.31471847 -485.21868356 1023.52249117 -485.22323861 1040.73027063 C-485.24812177 1137.36888261 -485.20947998 1234.00322472 -484.12414088 1358.81428266 C-484.08253792 1363.23223241 -484.04195889 1367.65019134 -484.00136014 1372.06815041 C-483.95386137 1377.22579247 -483.90565247 1382.38342779 -483.85727181 1387.54106165 C-483.84875242 1388.45347942 -483.84023304 1389.3658972 -483.83145549 1390.305964 C-483.5025393 1425.32809715 -482.9199304 1460.34534217 -482.21678032 1495.36185861 C-482.15696228 1498.36766418 -482.09894144 1501.37349938 -482.04138436 1504.379349 C-481.66524015 1523.83272376 -481.19451769 1543.28170882 -480.33050599 1562.72034288 C-480.25457763 1564.44382564 -480.18199779 1566.16746021 -480.11327042 1567.89124513 C-479.49147096 1583.18639611 -477.43283583 1597.88305418 -472.96786751 1612.57279993 C-472.67073861 1613.56940637 -472.3736097 1614.56601282 -472.06747689 1615.59281946 C-468.44106266 1627.56482658 -464.33578169 1639.36987708 -460.09286751 1651.13529993 C-459.7888099 1651.98882044 -459.48475228 1652.84234094 -459.17148079 1653.72172571 C-454.84327533 1665.78786381 -449.2718459 1676.91832788 -443.09286751 1688.13529993 C-442.25499177 1689.68052806 -441.41774556 1691.22609773 -440.58114876 1692.77201868 C-429.62074443 1713.30048554 -429.62074443 1713.30048554 -416.09286751 1732.13529993 C-415.43286751 1732.13529993 -414.77286751 1732.13529993 -414.09286751 1732.13529993 C-413.84536751 1732.67670618 -413.59786751 1733.21811243 -413.34286751 1733.77592493 C-411.81298147 1736.66358483 -410.00135754 1739.23306011 -408.09286751 1741.88529993 C-407.39161751 1742.87014368 -406.69036751 1743.85498743 -405.96786751 1744.86967493 C-405.34911751 1745.61733118 -404.73036751 1746.36498743 -404.09286751 1747.13529993 C-403.43286751 1747.13529993 -402.77286751 1747.13529993 -402.09286751 1747.13529993 C-401.76286751 1748.45529993 -401.43286751 1749.77529993 -401.09286751 1751.13529993 C-400.43286751 1751.13529993 -399.77286751 1751.13529993 -399.09286751 1751.13529993 C-398.09286751 1753.13529993 -397.09286751 1755.13529993 -396.09286751 1757.13529993 C-395.43286751 1757.13529993 -394.77286751 1757.13529993 -394.09286751 1757.13529993 C-394.09286751 1757.79529993 -394.09286751 1758.45529993 -394.09286751 1759.13529993 C-393.41224251 1759.67154993 -392.73161751 1760.20779993 -392.03036751 1760.76029993 C-389.61316626 1762.71463285 -387.83766501 1764.48391149 -385.84286751 1766.82279993 C-381.83772131 1771.51303693 -377.48961779 1775.81523715 -373.09286751 1780.13529993 C-372.55146126 1780.71666712 -372.01005501 1781.2980343 -371.45224251 1781.89701868 C-370.15291441 1783.3597708 -370.15291441 1783.3597708 -368.09286751 1783.13529993 C-368.09286751 1783.79529993 -368.09286751 1784.45529993 -368.09286751 1785.13529993 C-367.43286751 1785.13529993 -366.77286751 1785.13529993 -366.09286751 1785.13529993 C-366.09286751 1785.79529993 -366.09286751 1786.45529993 -366.09286751 1787.13529993 C-364.74362355 1788.34552779 -364.74362355 1788.34552779 -362.90536751 1789.57279993 C-358.19797883 1792.96178173 -353.84523212 1796.70751174 -349.48666634 1800.52763391 C-346.69340437 1803.25415266 -346.69340437 1803.25415266 -343.09286751 1804.13529993 C-343.09286751 1804.79529993 -343.09286751 1805.45529993 -343.09286751 1806.13529993 C-340.68978282 1807.95344305 -338.28327722 1809.65193247 -335.78036751 1811.32279993 C-335.10941048 1811.77977258 -334.43845345 1812.23674524 -333.74716439 1812.70756555 C-324.00850147 1819.30059462 -314.05746586 1825.4180496 -303.78036751 1831.13529993 C-302.14213021 1832.04940637 -302.14213021 1832.04940637 -300.4707972 1832.98197962 C-285.52899605 1842.48204126 -285.52899605 1842.48204126 -269.09286751 1847.13529993 C-268.76286751 1847.79529993 -268.43286751 1848.45529993 -268.09286751 1849.13529993 C-265.80881298 1850.19110584 -265.80881298 1850.19110584 -263.09286751 1851.13529993 C-262.20808724 1851.47649866 -261.32330697 1851.81769739 -260.41171517 1852.16923548 C-224.20597054 1866.23713354 -224.20597054 1866.23713354 -186.10068001 1872.95951868 C-184.09286751 1873.13529993 -184.09286751 1873.13529993 -181.76864876 1873.62358118 C-178.56126514 1874.23696403 -175.41432102 1874.43714423 -172.15536751 1874.63529993 C-168.79216819 1874.84023917 -165.53968291 1875.05251124 -162.22568001 1875.66654993 C-158.98447032 1876.15151896 -155.95676824 1876.21017573 -152.68778386 1876.16844106 C-141.70503477 1876.03762643 -130.74569825 1876.23348531 -119.76771619 1876.51952875 C-94.11734764 1877.18021686 -68.46387996 1877.51826918 -42.80746259 1877.84248114 C-36.50800228 1877.92247772 -30.2085719 1878.0047758 -23.90913643 1878.08670069 C-13.36143168 1878.22352202 -2.81370534 1878.35857093 7.73403678 1878.49247766 C18.50131558 1878.62917159 29.26856684 1878.76783597 40.0357946 1878.90849329 C53.16340752 1879.07998334 66.2910436 1879.24960219 79.41870056 1879.41769243 C84.37765692 1879.48122315 89.33660349 1879.54544924 94.29554306 1879.61027742 C100.14420763 1879.68664443 105.9928931 1879.76116957 111.8415979 1879.83438898 C113.96006933 1879.86118414 116.07853353 1879.88856047 118.19698844 1879.91663194 C134.43633428 1880.13122573 150.66384815 1880.13529993 166.90713249 1880.13529993 C166.90713249 1314.18529993 166.90713249 748.23529993 166.90713249 165.13529993 C138.19669733 165.13339674 138.19669733 165.13339674 109.48672233 165.21122766 Z " fill="#000000" transform="translate(917.0928675122559,57.86470007151365)"/>
<path d="M0 0 C0.81807129 0.1556543 1.63614258 0.31130859 2.47900391 0.47167969 C29.47407333 5.86961614 60.45010324 18.182103 80.9921875 37.16796875 C83.52427233 39.478373 86.16017583 41.64147225 88.8125 43.8125 C89.72644531 44.56144531 90.64039063 45.31039062 91.58203125 46.08203125 C94.04280675 48.08811647 94.04280675 48.08811647 97 50 C97 50.66 97 51.32 97 52 C97.66 52 98.32 52 99 52 C99 52.66 99 53.32 99 54 C99.66 54 100.32 54 101 54 C101 54.66 101 55.32 101 56 C101.66 56 102.32 56 103 56 C103 56.66 103 57.32 103 58 C103.66 58 104.32 58 105 58 C105 58.66 105 59.32 105 60 C105.66 60 106.32 60 107 60 C108.77389278 62.06904965 110.4284447 64.13761169 112.0625 66.3125 C112.52205078 66.90740234 112.98160156 67.50230469 113.45507812 68.11523438 C115.43820869 70.72155134 116.95736686 72.87210058 118 76 C118.66 76 119.32 76 120 76 C121.63957966 78.17594773 123.14537959 80.34293481 124.625 82.625 C125.29486938 83.65270508 125.29486938 83.65270508 125.97827148 84.70117188 C127.33041219 86.7936271 128.66682997 88.8954201 130 91 C130.69996094 92.09054687 131.39992188 93.18109375 132.12109375 94.3046875 C138.082759 104.1168448 142.07448202 114.62247087 146.03076172 125.36767578 C146.83909858 127.56301281 147.66794879 129.74871813 148.50390625 131.93359375 C165.41550193 178.63928589 160.14893638 230.24481093 139.58203125 274.73046875 C134.65917964 284.97411025 129.32262827 295.22535927 121.3984375 303.484375 C119.58087146 305.45425105 118.36322881 307.70403569 117 310 C116.34 310 115.68 310 115 310 C114.731875 310.57234375 114.46375 311.1446875 114.1875 311.734375 C112.95867364 314.07884634 111.57477824 316.12404938 110 318.25 C109.2265625 319.30960938 109.2265625 319.30960938 108.4375 320.390625 C107.963125 320.92171875 107.48875 321.4528125 107 322 C106.34 322 105.68 322 105 322 C105 322.66 105 323.32 105 324 C103.53125 325.48046875 103.53125 325.48046875 101.5 327.1875 C100.41332031 328.11175781 100.41332031 328.11175781 99.3046875 329.0546875 C98.16386719 330.01761719 98.16386719 330.01761719 97 331 C95.53889642 332.26764735 94.0804249 333.53833681 92.625 334.8125 C91.97789062 335.37582031 91.33078125 335.93914062 90.6640625 336.51953125 C89.40551216 337.63922744 88.1911483 338.8088517 87 340 C85.14746108 341.45788777 83.25384501 342.85225748 81.35546875 344.25 C79.81851334 345.39188396 78.29903241 346.55778593 76.80078125 347.75 C70.53185119 352.5955498 63.87711155 356.44612482 56.9375 360.25 C56.01565918 360.75740723 55.09381836 361.26481445 54.14404297 361.78759766 C48.96065199 364.58192081 43.76849591 367.01629217 38.27001953 369.12402344 C36.31191179 369.87963654 34.38453508 370.71401765 32.46484375 371.5625 C28.23181259 373.31870684 23.9481497 374.68121419 19.5625 376 C18.77423828 376.2475 17.98597656 376.495 17.17382812 376.75 C2.3299744 381.23468909 -11.60042799 382.46401985 -27.02416992 382.33618164 C-30.03396905 382.31272238 -33.04286746 382.31562892 -36.05273438 382.32226562 C-67.30564498 382.27766298 -95.25829071 378.18493561 -123 363 C-123 362.34 -123 361.68 -123 361 C-123.598125 360.855625 -124.19625 360.71125 -124.8125 360.5625 C-126.56150404 360.1127561 -128.28677023 359.57107659 -130 359 C-130 358.34 -130 357.68 -130 357 C-131.65 356.67 -133.3 356.34 -135 356 C-135 355.34 -135 354.68 -135 354 C-137.65228812 352.92474806 -140.28368454 351.90543849 -143 351 C-143 350.34 -143 349.68 -143 349 C-143.53753906 348.76023437 -144.07507813 348.52046875 -144.62890625 348.2734375 C-180.51745538 328.99886252 -208.90656537 283.77169742 -220.64355469 245.92480469 C-225.70120958 228.27664185 -226.39218248 209.93457539 -226.3125 191.6875 C-226.31034485 190.79235687 -226.3081897 189.89721375 -226.30596924 188.97494507 C-226.10989878 138.09919405 -208.47944492 91.83362221 -173 55 C-172.31035156 54.2471875 -171.62070312 53.494375 -170.91015625 52.71875 C-160.88809553 42.10036705 -148.45452885 33.52364661 -136 26 C-135.01 25.34 -134.02 24.68 -133 24 C-132.01 24 -131.02 24 -130 24 C-130 23.34 -130 22.68 -130 22 C-88.02238154 1.5549423 -46.89544215 -8.97787287 0 0 Z " fill="#000000" transform="translate(811,480)"/>
</svg>
